<svg width="167" height="48" viewBox="0 0 167 48" fill="none" xmlns="http://www.w3.org/2000/svg">
<path d="M130.696 31.8669C128.272 31.8668 127.063 33.931 127.063 35.3295L127.062 39.8704C127.062 41.0431 126.797 41.9554 126.274 42.5844C125.155 43.9298 123.192 43.6117 122.431 42.8491C121.738 42.1556 121.8 40.8171 121.8 39.8195L121.801 32.9654C121.801 31.9724 120.711 31.8641 120.699 31.8641C118.276 31.864 117.066 33.9282 117.066 35.3267L117.066 41.0127C117.066 42.4918 117.759 47.3899 123.019 47.3901C126.177 47.3903 126.864 45.8628 127.076 45.515L127.076 45.9389C127.076 46.5471 127.569 47.0402 128.175 47.0402L129.016 47.0402C130.548 47.0403 131.794 45.794 131.794 44.2619L131.795 32.9636C131.795 31.9706 130.705 31.8623 130.694 31.8623L130.696 31.8669Z" fill="#018762"/>
<path d="M127.227 25.948C126.646 25.948 126.098 26.2106 125.752 26.6553L123.807 30.0465C123.579 30.3391 123.499 30.6893 123.584 31.0095C123.722 31.5233 124.213 31.8827 124.78 31.8827C126.639 31.8828 128.312 30.466 129.146 28.934L129.848 27.6415C130.026 27.3167 130.047 26.955 129.906 26.6509C129.713 26.2246 129.266 25.9504 128.773 25.9504L127.227 25.9503L127.227 25.948Z" fill="#018762"/>
<path d="M89.5161 34.8069L86.399 34.8068C85.9543 34.8067 84.8254 34.5233 84.8255 33.2055C84.8255 32.8875 85.0352 31.5766 86.3991 31.5767L91.652 31.577C94.707 31.5771 94.5919 28.4001 94.5919 28.4001C94.592 27.8126 94.1128 27.3333 93.5253 27.3333L85.8764 27.3329C80.8885 27.3327 79.893 31.6662 79.8929 33.3435C79.8928 35.7649 81.0976 37.6195 83.0075 38.5366C83.9474 38.9882 85.0072 39.2186 86.1522 39.2187L89.1312 39.2188C89.5113 39.2189 90.8982 39.4954 90.8982 41.0137C90.8981 41.3408 90.6308 42.7807 89.131 42.7807L83.6293 42.7804C80.5744 42.7802 80.6917 45.9573 80.6917 45.9573C80.6917 46.5448 81.1709 47.024 81.7583 47.0241L89.792 47.0245C94.8606 47.0247 95.8031 42.5299 95.8032 40.5992C95.8034 35.4615 91.0966 34.8093 89.5161 34.8092L89.5161 34.8069Z" fill="#018762"/>
<path d="M114.064 32.9466C114.064 32.3407 113.571 31.8891 112.965 31.8891C112.965 31.8891 110.507 31.8544 109.889 34.1813C109.161 32.9256 107.959 31.5363 105.038 31.5546C101.849 31.5752 100.135 33.098 99.0796 35.0424C98.0865 36.8716 98.1324 39.452 98.1324 39.452C98.1322 44.638 101.364 47.3867 105.039 47.3869C108.136 47.3871 109.394 45.8274 109.751 45.3413C109.751 45.3413 109.472 47.0369 110.803 47.037L111.538 47.0371C112.955 47.0371 114.066 45.9267 114.066 44.5144L114.066 32.9466L114.064 32.9466ZM106.127 43.5164C102.385 43.5163 102.726 39.3716 102.726 39.3716C102.727 36.4779 104.611 35.6555 106.127 35.6556C108.005 35.6557 109.528 36.7731 109.527 39.3719C109.527 39.3719 109.875 43.5166 106.127 43.5164Z" fill="#018762"/>
<path d="M163.547 32.5551C161.584 31.3731 158.322 31.1034 155.663 32.5985C153.626 33.7434 152.087 35.9712 152.087 39.427C152.087 39.427 151.774 44.302 155.706 46.4932C158.153 47.8573 161.731 47.4059 163.146 46.7148C165.622 45.5031 165.887 44.2843 165.857 43.7337C165.781 42.3905 164.028 41.8121 164.028 41.8121C162.579 41.0518 162.678 43.4939 159.883 43.4938C157.347 43.4937 156.681 41.798 156.541 40.8326L165.459 40.8331C166.362 40.8331 166.998 40.0867 166.998 39.2849C166.998 36.6977 166.051 34.062 163.547 32.5528L163.547 32.5551ZM156.674 37.5219C156.674 37.0151 157.647 35.6558 159.676 35.6559C161.561 35.656 162.591 36.5892 162.591 37.5222L156.674 37.5219Z" fill="#018762"/>
<path d="M148.816 26.2002L148.796 26.2002C147.865 26.2002 146.948 26.5803 146.277 27.2461C145.618 27.9027 145.254 28.7597 145.254 29.6651L145.254 33.1578C143.768 31.4575 141.969 31.5058 140.902 31.5057C133.938 31.5054 134.073 39.4492 134.073 39.4492C134.073 46.6327 139.466 47.3702 140.901 47.3703C144.131 47.3704 144.996 45.8522 145.311 45.4537L145.311 45.919C145.311 46.5273 145.806 47.0203 146.412 47.0204L147.253 47.0204C148.712 47.0205 149.896 45.834 149.896 44.378L149.897 27.3016C149.897 26.6979 149.413 26.2026 148.816 26.2002ZM142.019 43.4906C138.337 43.4904 138.683 39.4586 138.683 39.4586C138.683 36.5096 140.517 35.6273 142.019 35.6274C143.653 35.6275 145.355 36.6482 145.355 39.3253C145.355 39.4589 145.79 43.4908 142.019 43.4906Z" fill="#018762"/>
<path d="M122.725 20.688C127.936 20.6883 129.462 17.0252 129.669 16.5575C130.768 14.097 127.241 13.742 127.241 13.742C126.548 13.5946 125.861 13.9885 125.644 14.6566C125.329 15.6357 124.573 16.5688 122.811 16.5687C119.829 16.5685 119.449 14.0619 119.449 12.7302C119.449 12.7302 119.332 8.93343 122.811 8.93361C125.062 8.93372 125.571 10.6179 125.645 10.846C125.861 11.5164 126.548 11.9081 127.241 11.7607C127.246 11.7607 130.775 11.4176 129.67 8.94547C128.55 6.43648 126.191 4.81673 122.726 4.81656C114.503 4.81615 114.929 12.73 114.929 12.73C114.929 18.4736 118.942 20.6879 122.725 20.688Z" fill="#018762"/>
<path d="M163.866 5.20105L163.037 5.201C161.563 5.20093 160.362 6.4012 160.362 7.87569L160.361 19.2269C160.361 19.8421 160.864 20.3444 161.479 20.3444L162.32 20.3444C163.813 20.3445 164.983 19.1235 164.983 17.5661L164.984 6.31849C164.984 5.70335 164.482 5.20108 163.866 5.20105Z" fill="#018762"/>
<path d="M162.904 0.00803498L162.346 0.00800725C161.121 0.0079463 160.127 1.00122 160.127 2.22654L160.127 2.22884C160.127 3.45417 161.121 4.44754 162.346 4.4476L162.903 4.44763C164.129 4.44769 165.122 3.45442 165.122 2.22909L165.122 2.22679C165.122 1.00147 164.129 0.00809592 162.904 0.00803498Z" fill="#018762"/>
<path d="M136.779 17.5324L136.779 11.6529C136.867 10.3904 137.731 9.76375 140.099 9.76387C140.099 9.76387 142.869 9.999 142.869 7.81722C142.857 6.47635 143.065 5.19771 141.731 5.19764L141.268 5.19762C139.821 5.19755 138.422 5.75041 137.395 6.76868C137.192 6.9691 136.987 7.19488 136.784 7.4483C136.784 7.33771 136.796 6.33091 136.793 6.09822C136.789 5.71808 136.439 5.23194 135.722 5.2319C135.701 5.2319 135.383 5.2434 135.28 5.2434C134.31 5.24335 132.047 6.01274 132.047 8.67603L132.047 19.1979C132.047 19.8153 132.547 20.3153 133.164 20.3153L134.005 20.3154C135.539 20.3154 136.784 19.0714 136.784 17.537L136.779 17.5324Z" fill="#018762"/>
<path d="M112.531 6.24446C112.531 5.63854 112.038 5.18695 111.432 5.18692C111.432 5.18692 108.974 5.15224 108.356 7.47913C107.628 6.22348 106.426 4.83417 103.505 4.85246C100.316 4.87304 98.6018 6.39582 97.5465 8.34025C96.5534 10.1695 96.5994 12.7498 96.5994 12.7498C96.5991 17.9359 99.8313 20.6846 103.506 20.6848C106.602 20.6849 107.86 19.1253 108.218 18.6392C108.218 18.6392 107.939 20.3348 109.27 20.3349L110.005 20.3349C111.422 20.335 112.533 19.2246 112.533 17.8123L112.533 6.24446L112.531 6.24446ZM104.594 16.8143C100.852 16.8141 101.193 12.6694 101.193 12.6694C101.193 9.77575 103.078 8.95336 104.594 8.95343C106.472 8.95353 107.995 10.071 107.994 12.6698C107.994 12.6698 108.342 16.8145 104.594 16.8143Z" fill="#018762"/>
<path d="M154.835 5.86412C152.872 4.68212 149.61 4.41241 146.951 5.9075C144.915 7.05243 143.375 9.28021 143.375 12.736C143.375 12.736 143.062 17.6111 146.994 19.8022C149.441 21.1663 153.019 20.7149 154.434 20.0238C156.91 18.8121 157.175 17.5933 157.145 17.0427C157.069 15.6995 155.316 15.1212 155.316 15.1212C153.867 14.3608 153.966 16.8029 151.171 16.8028C148.635 16.8027 147.969 15.107 147.829 14.1416L156.747 14.1421C157.65 14.1421 158.286 13.3957 158.286 12.5939C158.286 10.0067 157.339 7.37098 154.835 5.86181L154.835 5.86412ZM147.962 10.831C147.962 10.3241 148.935 8.96486 150.964 8.96496C152.849 8.96505 153.879 9.89818 153.879 10.8312L147.962 10.831Z" fill="#018762"/>
<path d="M83.5152 20.1954L91.4107 20.1958C91.7931 20.1958 92.4774 20.1244 92.7608 19.9885C94.862 18.9795 95.3321 15.8001 93.5351 15.8L86.3769 15.7997C85.8792 15.7997 85.4738 15.3942 85.4738 14.8965L85.5274 3.31487C85.5274 1.75744 84.2604 0.490244 82.7029 0.490166L81.9242 0.490128C81.2999 0.490097 80.7285 0.996925 80.7285 1.62128L80.7392 17.4167C80.7391 18.9488 81.9855 20.1953 83.5175 20.1954L83.5152 20.1954Z" fill="#018762"/>
<path d="M45.6734 17.8274L38.635 17.8271C36.6997 17.827 35.5663 16.4284 35.5664 14.8249C35.5665 12.4128 37.6124 11.8899 38.6353 11.8899L50.9542 11.8906C55.4375 11.8908 59.0733 8.25542 59.0735 3.77206C59.0735 3.77206 59.0483 0.618034 55.9196 0.617879L36.1407 0.616895C32.5352 0.616715 21.7598 3.10207 21.7592 15.156C21.7589 21.0931 24.7376 25.3831 29.495 27.6297C31.8518 28.7425 34.4736 29.2979 37.365 29.2981L44.2075 29.2984C46.5206 29.2985 47.7416 30.9274 47.7415 32.6991C47.7414 35.0168 45.0251 36.035 44.2072 36.035L17.5443 36.0336C15.404 36.0335 14.4088 34.119 14.4089 32.8311L14.4101 8.73241C14.4103 4.24904 10.7749 0.613329 6.29157 0.613106L3.15598 0.61295C1.41424 0.612863 0.00188288 2.02508 0.00179625 3.76681L0.000357326 32.6967C-0.000276479 45.4395 12.2932 47.304 15.6753 47.3042L46.3354 47.3057C58.7511 47.3063 61.5439 36.8952 61.5442 31.898C61.5448 19.4271 49.7305 17.823 45.6711 17.8228L45.6734 17.8274Z" fill="url(#paint0_linear_17221_203)"/>
<defs>
<linearGradient id="paint0_linear_17221_203" x1="0.868772" y1="23.0501" x2="62.2044" y2="23.0531" gradientUnits="userSpaceOnUse">
<stop stop-color="#008392"/>
<stop offset="1" stop-color="#00BC86"/>
</linearGradient>
</defs>
</svg>
