<svg width="268" height="203" viewBox="0 0 268 203" fill="none" xmlns="http://www.w3.org/2000/svg">
<path d="M198.246 74.7199L167.696 74.7183C159.296 74.7179 154.376 68.6477 154.377 61.6877C154.377 51.2177 163.257 48.9481 167.697 48.9483L221.167 48.951C240.627 48.952 256.408 33.1728 256.409 13.7128C256.409 13.7128 256.3 0.0227496 242.72 0.0220741L156.87 0.0178041C141.22 0.0170257 94.4492 10.8047 94.4466 63.1247C94.4453 88.8947 107.374 107.515 128.024 117.266C138.254 122.097 149.634 124.507 162.184 124.508L191.884 124.51C201.924 124.51 207.223 131.58 207.223 139.27C207.222 146.96 195.432 153.75 191.882 153.75L76.1521 153.744C66.8621 153.743 62.5425 145.433 62.5428 139.843L62.548 35.2431C62.549 15.7831 46.7698 0.00232576 27.3098 0.00135785L13.6998 0.000680917C6.13977 0.000304896 0.00946073 6.12999 0.00908471 13.69L0.00283908 139.26C8.80542e-05 194.57 53.3597 202.663 68.0397 202.663L201.12 202.67C255.01 202.673 267.132 157.483 267.133 135.793C267.136 81.6633 215.856 74.7007 198.236 74.6999L198.246 74.7199Z" fill="black"/>
<path d="M198.246 74.7199L167.696 74.7183C159.296 74.7179 154.376 68.6477 154.377 61.6877C154.377 51.2177 163.257 48.9481 167.697 48.9483L221.167 48.951C240.627 48.952 256.408 33.1728 256.409 13.7128C256.409 13.7128 256.3 0.0227496 242.72 0.0220741L156.87 0.0178041C141.22 0.0170257 94.4492 10.8047 94.4466 63.1247C94.4453 88.8947 107.374 107.515 128.024 117.266C138.254 122.097 149.634 124.507 162.184 124.508L191.884 124.51C201.924 124.51 207.223 131.58 207.223 139.27C207.222 146.96 195.432 153.75 191.882 153.75L76.1521 153.744C66.8621 153.743 62.5425 145.433 62.5428 139.843L62.548 35.2431C62.549 15.7831 46.7698 0.00232576 27.3098 0.00135785L13.6998 0.000680917C6.13977 0.000304896 0.00946073 6.12999 0.00908471 13.69L0.00283908 139.26C8.80542e-05 194.57 53.3597 202.663 68.0397 202.663L201.12 202.67C255.01 202.673 267.132 157.483 267.133 135.793C267.136 81.6633 215.856 74.7007 198.236 74.6999L198.246 74.7199Z" fill="url(#paint0_linear_13113_8651)"/>
<defs>
<linearGradient id="paint0_linear_13113_8651" x1="-15.9068" y1="113.409" x2="252.934" y2="113.422" gradientUnits="userSpaceOnUse">
<stop stop-color="#008392"/>
<stop offset="1" stop-color="#00BC86"/>
</linearGradient>
</defs>
</svg>
