<svg width="84" height="100" viewBox="0 0 84 100" fill="none" xmlns="http://www.w3.org/2000/svg">
<path d="M48.9911 84.7206C46.6538 84.7205 45.4873 86.7111 45.4873 88.0596L45.487 92.4386C45.487 93.5695 45.2314 94.4493 44.7271 95.0558C43.6473 96.3532 41.7544 96.0465 41.0213 95.3111C40.3526 94.6423 40.4126 93.3515 40.4127 92.3895L40.413 85.7799C40.413 84.8224 39.3622 84.7179 39.3511 84.7179C37.0138 84.7178 35.8473 86.7084 35.8473 88.0569L35.847 93.5401C35.8469 94.9665 36.5154 99.6898 41.5876 99.6901C44.6335 99.6903 45.2957 98.2173 45.5001 97.8818L45.5001 98.2906C45.5 98.8772 45.9755 99.3526 46.5598 99.3526L47.3707 99.3527C48.8481 99.3528 50.0501 98.1509 50.0502 96.6734L50.0508 85.7782C50.0508 84.8206 48.9999 84.7161 48.9888 84.7161L48.9911 84.7206Z" fill="#018762"/>
<path d="M45.6477 79.0129C45.0878 79.0128 44.559 79.2661 44.2257 79.6948L42.3505 82.9651C42.1305 83.2473 42.0527 83.585 42.1349 83.8938C42.2682 84.3892 42.7414 84.7358 43.2879 84.7359C45.0809 84.7359 46.6939 83.3697 47.4982 81.8923L48.1759 80.6459C48.347 80.3327 48.367 79.9839 48.2315 79.6906C48.0449 79.2796 47.6139 79.0152 47.1384 79.0151L45.6477 79.0151L45.6477 79.0129Z" fill="#018762"/>
<path d="M9.28231 87.5557L6.27634 87.5556C5.84755 87.5556 4.75893 87.2822 4.75899 86.0114C4.75901 85.7048 4.96125 84.4407 6.2765 84.4408L11.342 84.441C14.288 84.4412 14.177 81.3774 14.177 81.3774C14.1771 80.8109 13.715 80.3487 13.1484 80.3487L5.77237 80.3483C0.962372 80.3481 0.00238759 84.5271 0.00230715 86.1445C0.00219101 88.4795 1.16406 90.268 3.00581 91.1524C3.91224 91.5879 4.93422 91.8101 6.03841 91.8101L8.91108 91.8103C9.27766 91.8103 10.6151 92.077 10.615 93.5411C10.615 93.8566 10.3572 95.2451 8.91091 95.2451L3.60546 95.2448C0.659479 95.2446 0.772635 98.3084 0.772635 98.3084C0.772607 98.8749 1.2347 99.3371 1.80123 99.3371L9.54833 99.3375C14.4361 99.3377 15.345 95.0032 15.3451 93.1414C15.3453 88.187 10.8064 87.558 9.28231 87.558L9.28231 87.5557Z" fill="#018762"/>
<path d="M32.9525 85.7618C32.9525 85.1775 32.4771 84.742 31.8928 84.742C31.8928 84.742 29.5222 84.7085 28.9267 86.9524C28.2247 85.7415 27.065 84.4018 24.2479 84.4194C21.1731 84.4393 19.52 85.9077 18.5024 87.7828C17.5447 89.5468 17.5891 92.0351 17.5891 92.0351C17.5888 97.0362 20.7057 99.6868 24.2494 99.687C27.2353 99.6872 28.4485 98.1831 28.7929 97.7144C28.7929 97.7144 28.5239 99.3495 29.8081 99.3496L30.5168 99.3496C31.8832 99.3497 32.9541 98.2789 32.9542 96.917L32.9547 85.7618L32.9525 85.7618ZM25.2982 95.9546C21.6901 95.9544 22.0191 91.9576 22.0191 91.9576C22.0193 89.1671 23.8367 88.3741 25.2986 88.3741C27.1093 88.3742 28.5778 89.4518 28.5776 91.9579C28.5776 91.9579 28.9129 95.9548 25.2982 95.9546Z" fill="#018762"/>
<path d="M80.6726 85.3842C78.7798 84.2444 75.6338 83.9843 73.0699 85.4261C71.1059 86.5302 69.6216 88.6785 69.6215 92.011C69.6215 92.011 69.3191 96.7122 73.1114 98.8252C75.4708 100.141 78.9212 99.7053 80.2853 99.0388C82.6737 97.8703 82.9293 96.6951 82.9004 96.1641C82.8272 94.8688 81.1365 94.3111 81.1365 94.3111C79.7391 93.5778 79.8345 95.9329 77.1396 95.9327C74.6934 95.9326 74.0515 94.2974 73.916 93.3665L82.5162 93.3669C83.3871 93.367 84.0004 92.6472 84.0004 91.874C84.0005 89.379 83.0875 86.8374 80.6726 85.382L80.6726 85.3842ZM74.045 90.1739C74.045 89.6851 74.9826 88.3744 76.94 88.3745C78.7573 88.3746 79.7504 89.2744 79.7503 90.1742L74.045 90.1739Z" fill="#018762"/>
<path d="M66.4672 79.2561L66.4472 79.2561C65.5497 79.256 64.6654 79.6225 64.0189 80.2646C63.3834 80.8977 63.0324 81.7242 63.0323 82.5973L63.0321 85.9654C61.5992 84.3257 59.8641 84.3723 58.8354 84.3723C52.1192 84.3719 52.2499 92.0324 52.2499 92.0324C52.2495 98.9597 57.4505 99.6709 58.8346 99.671C61.9495 99.6711 62.7827 98.207 63.0871 97.8227L63.0871 98.2715C63.087 98.858 63.5647 99.3335 64.149 99.3335L64.9599 99.3336C66.3663 99.3336 67.5083 98.1895 67.5083 96.7854L67.5092 80.3181C67.5092 79.736 67.0427 79.2583 66.4672 79.2561ZM59.9124 95.9297C56.3621 95.9295 56.6955 92.0415 56.6955 92.0415C56.6957 89.1977 58.4642 88.3469 59.9127 88.347C61.4879 88.347 63.1297 89.3313 63.1296 91.913C63.1296 92.0418 63.5493 95.9298 59.9124 95.9297Z" fill="#018762"/>
<path d="M41.3067 73.9405C46.3322 73.9407 47.8032 70.4083 48.0031 69.9573C49.063 67.5846 45.6616 67.2422 45.6616 67.2422C44.9929 67.1 44.3308 67.4799 44.1219 68.1242C43.8175 69.0684 43.0887 69.9681 41.3891 69.9681C38.5142 69.9679 38.1477 67.5507 38.1478 66.2665C38.1478 66.2665 38.0347 62.6052 41.3895 62.6053C43.5601 62.6054 44.051 64.2295 44.1221 64.4495C44.3309 65.096 44.9929 65.4737 45.6617 65.3316C45.6661 65.3316 49.0698 65.0007 48.0035 62.6168C46.9239 60.1973 44.6489 58.6353 41.3075 58.6351C33.3782 58.6347 33.7888 66.2663 33.7888 66.2663C33.7885 71.805 37.6587 73.9403 41.3067 73.9405Z" fill="#018762"/>
<path d="M80.9805 59.0059L80.1807 59.0059C78.7588 59.0058 77.6013 60.1632 77.6012 61.5851L77.6007 72.5315C77.6006 73.1247 78.0849 73.609 78.6781 73.6091L79.4891 73.6091C80.9287 73.6092 82.0574 72.4317 82.0575 70.9299L82.058 60.0835C82.0581 59.4903 81.5737 59.0059 80.9805 59.0059Z" fill="#018762"/>
<path d="M80.0499 53.9981L79.5122 53.9981C78.3306 53.998 77.3727 54.9559 77.3726 56.1375L77.3726 56.1397C77.3726 57.3213 78.3304 58.2793 79.512 58.2793L80.0497 58.2794C81.2313 58.2794 82.1892 57.3216 82.1893 56.14L82.1893 56.1377C82.1894 54.9561 81.2315 53.9982 80.0499 53.9981Z" fill="#018762"/>
<path d="M54.8571 70.8974L54.8573 65.2276C54.9418 64.0101 55.775 63.4059 58.0589 63.406C58.0589 63.406 60.7294 63.6327 60.7295 61.5288C60.7185 60.2357 60.9185 59.0027 59.6321 59.0026L59.1855 59.0026C57.7903 59.0025 56.4417 59.5357 55.4508 60.5176C55.2552 60.7109 55.0575 60.9286 54.862 61.173C54.862 61.0663 54.8731 60.0955 54.8709 59.8711C54.8665 59.5045 54.5288 59.0357 53.8379 59.0357C53.8179 59.0357 53.5113 59.0467 53.4113 59.0467C52.476 59.0467 50.2942 59.7886 50.2941 62.3569L50.2936 72.5035C50.2936 73.0989 50.7756 73.581 51.3711 73.5811L52.182 73.5811C53.6616 73.5812 54.8614 72.3815 54.8615 70.9019L54.8571 70.8974Z" fill="#018762"/>
<path d="M31.4741 60.0121C31.4741 59.4278 30.9987 58.9923 30.4144 58.9923C30.4144 58.9923 28.0438 58.9588 27.4483 61.2027C26.7463 59.9919 25.5866 58.6521 22.7695 58.6698C19.6947 58.6896 18.0416 60.1581 17.024 62.0331C16.0664 63.7971 16.1107 66.2854 16.1107 66.2854C16.1104 71.2865 19.2274 73.9372 22.771 73.9373C25.757 73.9375 26.9701 72.4334 27.3145 71.9647C27.3145 71.9647 27.0456 73.5998 28.3297 73.5999L29.0384 73.5999C30.4048 73.6 31.4757 72.5292 31.4758 71.1673L31.4763 60.0121L31.4741 60.0121ZM23.8198 70.2049C20.2118 70.2047 20.5408 66.2079 20.5408 66.2079C20.5409 63.4174 22.3583 62.6244 23.8202 62.6244C25.6309 62.6245 27.0994 63.7021 27.0993 66.2082C27.0993 66.2082 27.4345 70.2051 23.8198 70.2049Z" fill="#018762"/>
<path d="M72.2692 59.6453C70.3763 58.5055 67.2304 58.2454 64.6665 59.6871C62.7024 60.7912 61.2182 62.9396 61.218 66.2721C61.218 66.2721 60.9157 70.9732 64.708 73.0863C67.0674 74.4016 70.5177 73.9664 71.8819 73.2999C74.2703 72.1314 74.5258 70.9562 74.497 70.4252C74.4237 69.1299 72.733 68.5722 72.733 68.5722C71.3356 67.8389 71.431 70.1939 68.7361 70.1938C66.29 70.1937 65.648 68.5585 65.5125 67.6276L74.1128 67.628C74.9837 67.6281 75.5969 66.9083 75.5969 66.1351C75.5971 63.6401 74.6841 61.0984 72.2692 59.6431L72.2692 59.6453ZM65.6415 64.435C65.6416 63.9462 66.5792 62.6355 68.5365 62.6356C70.3539 62.6356 71.3469 63.5355 71.3469 64.4353L65.6415 64.435Z" fill="#018762"/>
<path d="M3.49324 73.4654L11.107 73.4657C11.4758 73.4658 12.1357 73.3969 12.409 73.2659C14.4352 72.2929 14.8886 69.2269 13.1557 69.2268L6.25281 69.2265C5.77293 69.2265 5.38192 68.8354 5.38195 68.3555L5.4336 57.187C5.43368 55.6851 4.2118 54.4631 2.70992 54.4631L1.95899 54.463C1.3569 54.463 0.805896 54.9517 0.805866 55.5538L0.816216 70.7859C0.816142 72.2633 2.01803 73.4653 3.49546 73.4654L3.49324 73.4654Z" fill="#018762"/>
<path d="M56.3373 16.6012L49.5499 16.6009C47.6837 16.6008 46.5907 15.2521 46.5908 13.7058C46.5909 11.3797 48.5638 10.8755 49.5502 10.8755L61.4297 10.8761C65.7531 10.8763 69.2592 7.37063 69.2594 3.04719C69.2594 3.04719 69.2351 0.00566464 66.218 0.00551458L47.1446 0.0045659C43.6677 0.00439296 33.2766 2.4011 33.276 14.0251C33.2758 19.7504 36.1482 23.8874 40.7359 26.0538C43.0087 27.127 45.537 27.6625 48.3252 27.6627L54.9237 27.663C57.1543 27.6631 58.3317 29.2339 58.3316 30.9424C58.3315 33.1775 55.7121 34.1593 54.9234 34.1593L29.2115 34.158C27.1476 34.1579 26.1879 32.3116 26.1879 31.0697L26.1891 7.8306C26.1893 3.50716 22.6836 0.00112707 18.3602 0.000912027L15.3364 0.000761631C13.6568 0.00067809 12.2949 1.36252 12.2948 3.04213L12.2934 30.9401C12.2928 43.2284 24.1477 45.0264 27.4092 45.0265L56.9757 45.028C68.9485 45.0286 71.6417 34.9888 71.6419 30.1699C71.6425 18.1438 60.2497 16.5969 56.335 16.5967L56.3373 16.6012Z" fill="url(#paint0_linear_17221_204)"/>
<defs>
<linearGradient id="paint0_linear_17221_204" x1="13.1308" y1="21.6375" x2="72.2786" y2="21.6405" gradientUnits="userSpaceOnUse">
<stop stop-color="#008392"/>
<stop offset="1" stop-color="#00BC86"/>
</linearGradient>
</defs>
</svg>
