<svg width="176" height="22" viewBox="0 0 176 22" fill="none" xmlns="http://www.w3.org/2000/svg">
<path d="M79.0821 6.30911C77.6682 6.30904 76.5159 7.45905 76.5158 8.8752L76.5153 19.7602C76.5152 20.3517 76.9968 20.8311 77.5861 20.8312L78.3909 20.8312C79.8225 20.8313 80.9462 19.6615 80.9463 18.1684L80.9468 7.38231C80.9469 6.79078 80.4653 6.31138 79.876 6.31135L79.0821 6.31131L79.0821 6.30911ZM58.2027 6.30367C56.8152 6.3036 55.4737 6.83349 54.4885 7.8098C54.295 8.0033 54.0971 8.21879 53.9014 8.46067C53.9014 8.35512 53.9124 7.38756 53.9103 7.16546C53.9059 6.80263 53.5694 6.33423 52.8834 6.33419C52.8636 6.33419 52.5601 6.34517 52.459 6.34517C51.5288 6.34512 49.3583 7.08387 49.3582 9.6369L49.3577 19.7259C49.3577 20.3174 49.837 20.7968 50.4286 20.7968L51.2334 20.7969C52.7045 20.797 53.8964 19.6052 53.8965 18.134L53.8968 12.4958C53.9826 11.2864 54.8095 10.6839 57.081 10.684C57.081 10.684 59.7352 10.9084 59.7353 8.8172C59.7244 7.53079 59.9245 6.30376 58.6425 6.30369L58.1983 6.30367L58.2027 6.30367ZM67.5043 9.91928C69.3118 9.91937 70.2991 10.8144 70.2991 11.7094L64.6257 11.7091C64.6257 11.2231 65.5582 9.91918 67.5043 9.91928ZM63.654 6.98563C61.7012 8.08283 60.2256 10.218 60.2254 13.5341C60.2254 13.5341 59.9261 18.2091 63.6951 20.3093C66.0414 21.6178 69.4718 21.1848 70.8286 20.5208C73.2036 19.3598 73.4587 18.19 73.428 17.6622C73.3555 16.3758 71.6733 15.8194 71.6733 15.8194C70.2835 15.0892 70.378 17.4334 67.6996 17.4332C65.2653 17.4331 64.6277 15.8058 64.4936 14.8823L73.0455 14.8827C73.9119 14.8827 74.5232 14.1659 74.5211 13.3984C74.5212 10.918 73.6154 8.38908 71.2119 6.94423C70.2312 6.35485 68.9118 6.00074 67.5111 6.00067C66.2247 6.00061 64.8723 6.29961 63.6518 6.98563M19.7706 13.4683C19.7707 10.6931 21.5783 9.906 23.0319 9.90607C24.8329 9.90616 26.2929 10.9771 26.2928 13.4686C26.2928 13.4686 26.6247 17.4444 23.0315 17.4442C19.4383 17.444 19.7706 13.4683 19.7706 13.4683ZM21.9876 5.97422C18.931 5.99386 17.286 7.45391 16.2744 9.3186C15.3222 11.0734 15.366 13.5472 15.366 13.5472C15.3658 18.5191 18.464 21.1559 21.989 21.1561C24.9576 21.1562 26.165 19.661 26.508 19.1948C26.508 19.1948 26.2397 20.822 27.5173 20.8221L28.2232 20.8221C29.5821 20.8222 30.6465 19.7579 30.6466 18.4012L30.6468 13.559L30.6471 7.30724C30.6471 6.72671 30.1744 6.29348 29.5938 6.29345C29.5938 6.29345 27.2365 6.26035 26.6449 8.4923C25.9523 7.29601 24.8089 5.97436 22.0491 5.97422C22.0293 5.97422 22.0117 5.97422 21.9919 5.97422M32.9491 13.5261C32.9489 19.0324 36.797 21.159 40.4231 21.1592C45.4214 21.1594 46.8839 17.6455 47.0841 17.1969C48.1397 14.8375 44.7555 14.4964 44.7555 14.4964C44.0914 14.3557 43.4317 14.7317 43.2249 15.3738C42.9214 16.3127 42.1979 17.2077 40.5069 17.2076C37.646 17.2074 37.2833 14.8039 37.2834 13.5263C37.2834 13.5263 37.1714 9.88478 40.5073 9.88495C42.6667 9.88506 43.1526 11.4991 43.2251 11.719C43.4318 12.3612 44.0915 12.7394 44.7556 12.5965C44.76 12.5965 48.1442 12.2668 47.0844 9.89627C46.0093 7.49052 43.7488 5.93792 40.4239 5.93776C32.5405 5.93736 32.9491 13.5261 32.9491 13.5261ZM136.726 9.23224L136.726 13.5884C136.726 14.7121 136.471 15.5873 135.972 16.1898C134.899 17.4806 133.016 17.1748 132.286 16.4447C131.62 15.7784 131.679 14.4964 131.679 13.5398L131.68 6.96702C131.68 6.01486 130.635 5.91146 130.624 5.91146C128.3 5.91134 127.141 7.89037 127.141 9.23176L127.141 14.6831C127.141 16.1014 127.804 20.7985 132.849 20.7987C135.877 20.7989 136.537 19.3344 136.741 19.0002L136.741 19.407C136.741 19.9897 137.214 20.4625 137.797 20.4625L138.604 20.4626C140.073 20.4627 141.269 19.2687 141.269 17.7975L141.27 6.9631C141.27 6.01094 140.225 5.90754 140.214 5.90754C137.89 5.90742 136.731 7.88645 136.731 9.22784M168.009 9.54165C169.817 9.54174 170.804 10.4368 170.804 11.3318L165.131 11.3315C165.131 10.8455 166.063 9.54155 168.009 9.54165ZM164.159 6.60801C162.206 7.70521 160.731 9.84255 160.73 13.1564C160.73 13.1564 160.431 17.8315 164.2 19.9317C166.546 21.2402 169.977 20.8072 171.334 20.1432C173.711 18.9822 173.964 17.8124 173.933 17.2846C173.86 15.9982 172.178 15.4418 172.178 15.4418C170.788 14.7116 170.883 17.0557 168.205 17.0556C165.77 17.0555 165.133 15.4304 164.999 14.5046L173.55 14.5051C174.417 14.5051 175.028 13.7883 175.026 13.0208C175.026 10.5403 174.12 8.01146 171.717 6.5666C170.736 5.97722 169.417 5.62312 168.016 5.62305C166.73 5.62298 165.377 5.92198 164.157 6.60801M113.39 13.1035C113.391 10.3284 115.198 9.54122 116.652 9.5413C118.453 9.54139 119.913 10.6124 119.913 13.1038C119.913 13.1038 120.245 17.0796 116.651 17.0794C113.058 17.0793 113.39 13.1035 113.39 13.1035ZM115.607 5.60945C112.551 5.62909 110.906 7.08914 109.894 8.95383C108.942 10.7086 108.986 13.1824 108.986 13.1824C108.986 18.1544 112.086 20.7911 115.609 20.7913C118.578 20.7914 119.785 19.2962 120.128 18.83C120.128 18.83 119.86 20.4572 121.137 20.4573L121.843 20.4573C123.202 20.4574 124.266 19.3932 124.266 18.0364L124.267 13.1942L124.267 6.94247C124.267 6.36193 123.794 5.92871 123.214 5.92868C123.214 5.92868 120.856 5.89558 120.265 8.12752C119.572 6.93124 118.429 5.60959 115.669 5.60945C115.651 5.60945 115.632 5.60945 115.614 5.60945M1.30404 1.78631C0.705914 1.78628 0.156148 2.27223 0.156119 2.87256L0.166357 18.0192C0.166284 19.4881 1.36248 20.6822 2.8314 20.6823L10.4025 20.6827C10.7698 20.6827 11.4251 20.6146 11.6977 20.4849C13.7121 19.5174 14.163 16.4674 12.439 16.4673L5.57375 16.467C5.09657 16.467 4.70737 16.0777 4.70739 15.6005L4.75853 4.49344C4.7586 3.00033 3.54262 1.78423 2.0495 1.78415L1.30404 1.78411L1.30404 1.78631ZM97.2395 1.56019C92.4567 1.55995 91.5021 5.7138 91.502 7.32346C91.5019 9.6456 92.6585 11.4246 94.488 12.3021C95.3895 12.7354 96.4055 12.9553 97.5028 12.9554L100.359 12.9555C100.722 12.9555 102.055 13.2217 102.055 14.6774C102.055 14.9897 101.799 16.3728 100.359 16.3728L95.0837 16.3725C92.1547 16.3723 92.2667 19.4202 92.2667 19.4202C92.2666 19.9831 92.7262 20.4427 93.2891 20.4427L100.994 20.4431C105.856 20.4434 106.758 16.1334 106.758 14.2818C106.758 9.35389 102.244 8.72915 100.729 8.72908L97.7405 8.72893C97.3139 8.72891 96.2298 8.45618 96.2298 7.19176C96.2298 6.8861 96.4322 5.62828 97.7406 5.62835L102.776 5.6286C105.705 5.62875 105.596 2.58314 105.596 2.58094C105.596 2.018 105.136 1.55838 104.573 1.55836L97.2395 1.55799L97.2395 1.56019ZM78.4271 1.32396C77.2528 1.3239 76.2984 2.27602 76.2984 3.45248C76.2983 4.62894 77.2504 5.58115 78.4269 5.58121L78.9612 5.58124C80.1355 5.5813 81.0899 4.62918 81.09 3.45272C81.09 2.27626 80.1379 1.32405 78.9615 1.32399L78.4271 1.32396ZM147.879 13.1888C147.88 10.3609 149.639 9.51435 151.079 9.51442C152.647 9.5145 154.279 10.4931 154.279 13.0616C154.279 13.1891 154.696 17.0571 151.079 17.057C147.461 17.0568 147.879 13.191 147.879 13.191M157.597 0.47689L157.578 0.476889C156.685 0.476845 155.805 0.841835 155.163 1.47951C154.53 2.10839 154.182 2.93299 154.182 3.7994L154.182 7.14846C152.757 5.51894 151.033 5.56503 150.008 5.56498C143.33 5.56465 143.459 13.182 143.459 13.182C143.459 20.0714 148.631 20.7775 150.008 20.7776C153.106 20.7778 153.933 19.3221 154.236 18.9395L154.236 19.3859C154.236 19.9686 154.711 20.4436 155.292 20.4436L156.099 20.4437C157.497 20.4437 158.634 19.3069 158.634 17.9083L158.635 1.53686C158.635 0.958521 158.171 0.483517 157.6 0.481289L157.597 0.47689ZM136.894 0.236171C136.338 0.236144 135.81 0.486803 135.48 0.913391L133.615 4.1656C133.397 4.44487 133.318 4.78131 133.402 5.08917C133.534 5.58175 134.006 5.92702 134.547 5.92704C136.331 5.92713 137.934 4.57043 138.734 3.09935L139.41 1.85915C139.579 1.5469 139.601 1.20166 139.467 0.90919C139.28 0.500168 138.853 0.238466 138.38 0.238443L136.898 0.238369L136.894 0.236171Z" fill="#018762"/>
</svg>
