<svg width="222" height="28" viewBox="0 0 222 28" fill="none" xmlns="http://www.w3.org/2000/svg">
<path d="M125.082 8.30911C123.668 8.30904 122.516 9.45905 122.516 10.8752L122.515 21.7602C122.515 22.3517 122.997 22.8311 123.586 22.8312L124.391 22.8312C125.822 22.8313 126.946 21.6615 126.946 20.1684L126.947 9.38231C126.947 8.79078 126.465 8.31138 125.876 8.31135L125.082 8.31131L125.082 8.30911ZM104.203 8.30367C102.815 8.3036 101.474 8.83349 100.489 9.8098C100.295 10.0033 100.097 10.2188 99.9014 10.4607C99.9014 10.3551 99.9124 9.38756 99.9103 9.16546C99.9059 8.80263 99.5694 8.33423 98.8834 8.33419C98.8636 8.33419 98.5601 8.34517 98.459 8.34517C97.5288 8.34512 95.3583 9.08387 95.3582 11.6369L95.3577 21.7259C95.3577 22.3174 95.837 22.7968 96.4286 22.7968L97.2334 22.7969C98.7045 22.797 99.8964 21.6052 99.8965 20.134L99.8968 14.4958C99.9826 13.2864 100.809 12.6839 103.081 12.684C103.081 12.684 105.735 12.9084 105.735 10.8172C105.724 9.53079 105.925 8.30376 104.643 8.30369L104.198 8.30367L104.203 8.30367ZM113.504 11.9193C115.312 11.9194 116.299 12.8144 116.299 13.7094L110.626 13.7091C110.626 13.2231 111.558 11.9192 113.504 11.9193ZM109.654 8.98563C107.701 10.0828 106.226 12.218 106.225 15.5341C106.225 15.5341 105.926 20.2091 109.695 22.3093C112.041 23.6178 115.472 23.1848 116.829 22.5208C119.204 21.3598 119.459 20.19 119.428 19.6622C119.355 18.3758 117.673 17.8194 117.673 17.8194C116.284 17.0892 116.378 19.4334 113.7 19.4332C111.265 19.4331 110.628 17.8058 110.494 16.8823L119.045 16.8827C119.912 16.8827 120.523 16.1659 120.521 15.3984C120.521 12.918 119.615 10.3891 117.212 8.94423C116.231 8.35485 114.912 8.00074 113.511 8.00067C112.225 8.00061 110.872 8.29961 109.652 8.98563M65.7706 15.4683C65.7707 12.6931 67.5783 11.906 69.0319 11.9061C70.8329 11.9062 72.2929 12.9771 72.2928 15.4686C72.2928 15.4686 72.6247 19.4444 69.0315 19.4442C65.4383 19.444 65.7706 15.4683 65.7706 15.4683ZM67.9876 7.97422C64.931 7.99386 63.286 9.45391 62.2744 11.3186C61.3222 13.0734 61.366 15.5472 61.366 15.5472C61.3658 20.5191 64.464 23.1559 67.989 23.1561C70.9576 23.1562 72.165 21.661 72.508 21.1948C72.508 21.1948 72.2397 22.822 73.5173 22.8221L74.2232 22.8221C75.5821 22.8222 76.6465 21.7579 76.6466 20.4012L76.6468 15.559L76.6471 9.30724C76.6471 8.72671 76.1744 8.29348 75.5938 8.29345C75.5938 8.29345 73.2365 8.26035 72.6449 10.4923C71.9523 9.29601 70.8089 7.97436 68.0491 7.97422C68.0293 7.97422 68.0117 7.97422 67.9919 7.97422M78.9491 15.5261C78.9489 21.0324 82.797 23.159 86.4231 23.1592C91.4214 23.1594 92.8839 19.6455 93.0841 19.1969C94.1397 16.8375 90.7555 16.4964 90.7555 16.4964C90.0914 16.3557 89.4317 16.7317 89.2249 17.3738C88.9214 18.3127 88.1979 19.2077 86.5069 19.2076C83.646 19.2074 83.2833 16.8039 83.2834 15.5263C83.2834 15.5263 83.1714 11.8848 86.5073 11.885C88.6667 11.8851 89.1526 13.4991 89.2251 13.719C89.4318 14.3612 90.0915 14.7394 90.7556 14.5965C90.76 14.5965 94.1442 14.2668 93.0844 11.8963C92.0093 9.49052 89.7488 7.93792 86.4239 7.93776C78.5405 7.93736 78.9491 15.5261 78.9491 15.5261ZM182.726 11.2322L182.726 15.5884C182.726 16.7121 182.471 17.5873 181.972 18.1898C180.899 19.4806 179.016 19.1748 178.286 18.4447C177.62 17.7784 177.679 16.4964 177.679 15.5398L177.68 8.96702C177.68 8.01486 176.635 7.91146 176.624 7.91146C174.3 7.91134 173.141 9.89037 173.141 11.2318L173.141 16.6831C173.141 18.1014 173.804 22.7985 178.849 22.7987C181.877 22.7989 182.537 21.3344 182.741 21.0002L182.741 21.407C182.741 21.9897 183.214 22.4625 183.797 22.4625L184.604 22.4626C186.073 22.4627 187.269 21.2687 187.269 19.7975L187.27 8.9631C187.27 8.01094 186.225 7.90754 186.214 7.90754C183.89 7.90742 182.731 9.88645 182.731 11.2278M214.009 11.5417C215.817 11.5417 216.804 12.4368 216.804 13.3318L211.131 13.3315C211.131 12.8455 212.063 11.5416 214.009 11.5417ZM210.159 8.60801C208.206 9.70521 206.731 11.8426 206.73 15.1564C206.73 15.1564 206.431 19.8315 210.2 21.9317C212.546 23.2402 215.977 22.8072 217.334 22.1432C219.711 20.9822 219.964 19.8124 219.933 19.2846C219.86 17.9982 218.178 17.4418 218.178 17.4418C216.788 16.7116 216.883 19.0557 214.205 19.0556C211.77 19.0555 211.133 17.4304 210.999 16.5046L219.55 16.5051C220.417 16.5051 221.028 15.7883 221.026 15.0208C221.026 12.5403 220.12 10.0115 217.717 8.5666C216.736 7.97722 215.417 7.62312 214.016 7.62305C212.73 7.62298 211.377 7.92198 210.157 8.60801M159.39 15.1035C159.391 12.3284 161.198 11.5412 162.652 11.5413C164.453 11.5414 165.913 12.6124 165.913 15.1038C165.913 15.1038 166.245 19.0796 162.651 19.0794C159.058 19.0793 159.39 15.1035 159.39 15.1035ZM161.607 7.60945C158.551 7.62909 156.906 9.08914 155.894 10.9538C154.942 12.7086 154.986 15.1824 154.986 15.1824C154.986 20.1544 158.086 22.7911 161.609 22.7913C164.578 22.7914 165.785 21.2962 166.128 20.83C166.128 20.83 165.86 22.4572 167.137 22.4573L167.843 22.4573C169.202 22.4574 170.266 21.3932 170.266 20.0364L170.267 15.1942L170.267 8.94247C170.267 8.36193 169.794 7.92871 169.214 7.92868C169.214 7.92868 166.856 7.89558 166.265 10.1275C165.572 8.93124 164.429 7.60959 161.669 7.60945C161.651 7.60945 161.632 7.60945 161.614 7.60945M47.304 3.78631C46.7059 3.78628 46.1561 4.27223 46.1561 4.87256L46.1664 20.0192C46.1663 21.4881 47.3625 22.6822 48.8314 22.6823L56.4025 22.6827C56.7698 22.6827 57.4251 22.6146 57.6977 22.4849C59.7121 21.5174 60.163 18.4674 58.439 18.4673L51.5738 18.467C51.0966 18.467 50.7074 18.0777 50.7074 17.6005L50.7585 6.49344C50.7586 5.00033 49.5426 3.78423 48.0495 3.78415L47.304 3.78411L47.304 3.78631ZM143.239 3.56019C138.457 3.55995 137.502 7.7138 137.502 9.32346C137.502 11.6456 138.658 13.4246 140.488 14.3021C141.39 14.7354 142.405 14.9553 143.503 14.9554L146.359 14.9555C146.722 14.9555 148.055 15.2217 148.055 16.6774C148.055 16.9897 147.799 18.3728 146.359 18.3728L141.084 18.3725C138.155 18.3723 138.267 21.4202 138.267 21.4202C138.267 21.9831 138.726 22.4427 139.289 22.4427L146.994 22.4431C151.856 22.4434 152.758 18.1334 152.758 16.2818C152.758 11.3539 148.244 10.7292 146.729 10.7291L143.74 10.7289C143.314 10.7289 142.23 10.4562 142.23 9.19176C142.23 8.8861 142.432 7.62828 143.741 7.62835L148.776 7.6286C151.705 7.62875 151.596 4.58314 151.596 4.58094C151.596 4.018 151.136 3.55838 150.573 3.55836L143.239 3.55799L143.239 3.56019ZM124.427 3.32396C123.253 3.3239 122.298 4.27602 122.298 5.45248C122.298 6.62894 123.25 7.58115 124.427 7.58121L124.961 7.58124C126.135 7.5813 127.09 6.62918 127.09 5.45272C127.09 4.27626 126.138 3.32405 124.961 3.32399L124.427 3.32396ZM193.879 15.1888C193.88 12.3609 195.639 11.5143 197.079 11.5144C198.647 11.5145 200.279 12.4931 200.279 15.0616C200.279 15.1891 200.696 19.0571 197.079 19.057C193.461 19.0568 193.879 15.191 193.879 15.191M203.597 2.47689L203.578 2.47689C202.685 2.47684 201.805 2.84183 201.163 3.47951C200.53 4.10839 200.182 4.93299 200.182 5.7994L200.182 9.14846C198.757 7.51894 197.033 7.56503 196.008 7.56498C189.33 7.56465 189.459 15.182 189.459 15.182C189.459 22.0714 194.631 22.7775 196.008 22.7776C199.106 22.7778 199.933 21.3221 200.236 20.9395L200.236 21.3859C200.236 21.9686 200.711 22.4436 201.292 22.4436L202.099 22.4437C203.497 22.4437 204.634 21.3069 204.634 19.9083L204.635 3.53686C204.635 2.95852 204.171 2.48352 203.6 2.48129L203.597 2.47689ZM182.894 2.23617C182.338 2.23614 181.81 2.4868 181.48 2.91339L179.615 6.1656C179.397 6.44487 179.318 6.78131 179.402 7.08917C179.534 7.58175 180.006 7.92702 180.547 7.92704C182.331 7.92713 183.934 6.57043 184.734 5.09935L185.41 3.85915C185.579 3.5469 185.601 3.20166 185.467 2.90919C185.28 2.50017 184.853 2.23847 184.38 2.23844L182.898 2.23837L182.894 2.23617Z" fill="#018762"/>
<path d="M20.3856 0.990024C18.3581 0.989923 12.3042 2.38598 12.3039 9.16108C12.3037 12.4969 13.977 14.9093 16.6509 16.1695C17.9747 16.7941 19.4502 17.1064 21.073 17.1065L24.9191 17.1067C26.2187 17.1067 26.9047 18.0215 26.9047 19.0177C26.9046 20.3195 25.3785 20.8911 24.9189 20.8911L9.93717 20.8904C8.73432 20.8903 8.17583 19.815 8.17586 19.0915L8.17654 5.55013C8.17666 3.03008 6.1339 0.987118 3.61386 0.986992L1.85246 0.986905C0.873914 0.986856 0.0800386 1.78065 0.07999 2.7592L0.0791814 19.0163C0.0788251 26.1785 6.988 27.2255 8.88793 27.2256L26.117 27.2265C33.0944 27.2268 34.6626 21.3776 34.6627 18.5695C34.6631 11.5613 28.0244 10.6594 25.7418 10.6593L21.7858 10.6591C20.6973 10.659 20.0619 9.87174 20.0619 8.97235C20.062 7.61557 21.2121 7.32316 21.786 7.32319L28.7084 7.32353C31.2285 7.32366 33.2714 5.2809 33.2716 2.76085C33.2716 2.76085 33.2563 0.988467 31.4993 0.988379L20.3856 0.987826L20.3856 0.990024Z" fill="black"/>
<path d="M20.3856 0.990024C18.3581 0.989923 12.3042 2.38598 12.3039 9.16108C12.3037 12.4969 13.977 14.9093 16.6509 16.1695C17.9747 16.7941 19.4502 17.1064 21.073 17.1065L24.9191 17.1067C26.2187 17.1067 26.9047 18.0215 26.9047 19.0177C26.9046 20.3195 25.3785 20.8911 24.9189 20.8911L9.93717 20.8904C8.73432 20.8903 8.17583 19.815 8.17586 19.0915L8.17654 5.55013C8.17666 3.03008 6.1339 0.987118 3.61386 0.986992L1.85246 0.986905C0.873914 0.986856 0.0800386 1.78065 0.07999 2.7592L0.0791814 19.0163C0.0788251 26.1785 6.988 27.2255 8.88793 27.2256L26.117 27.2265C33.0944 27.2268 34.6626 21.3776 34.6627 18.5695C34.6631 11.5613 28.0244 10.6594 25.7418 10.6593L21.7858 10.6591C20.6973 10.659 20.0619 9.87174 20.0619 8.97235C20.062 7.61557 21.2121 7.32316 21.786 7.32319L28.7084 7.32353C31.2285 7.32366 33.2714 5.2809 33.2716 2.76085C33.2716 2.76085 33.2563 0.988467 31.4993 0.988379L20.3856 0.987826L20.3856 0.990024Z" fill="url(#paint0_linear_17221_202)"/>
<defs>
<linearGradient id="paint0_linear_17221_202" x1="-1.98054" y1="15.6698" x2="32.8245" y2="15.6716" gradientUnits="userSpaceOnUse">
<stop stop-color="#008392"/>
<stop offset="1" stop-color="#00BC86"/>
</linearGradient>
</defs>
</svg>
